<?xml version="1.0" encoding="UTF-8"?>
<svg width="103px" height="172px" viewBox="0 0 103 172" version="1.1" xmlns="http://www.w3.org/2000/svg" xmlns:xlink="http://www.w3.org/1999/xlink">
    <!-- Generator: Sketch 52.5 (67469) - http://www.bohemiancoding.com/sketch -->
    <title>SUV Yellow</title>
    <desc>Created with Sketch.</desc>
    <g id="Severity-Scale-Display" stroke="none" stroke-width="1" fill="none" fill-rule="evenodd">
        <g id="Assets" transform="translate(-924.000000, -570.000000)">
            <g id="SUV-Yellow" transform="translate(924.000000, 570.000000)">
                <rect id="Rectangle-3" fill="#FFFBE7" x="0" y="0" width="103" height="172"></rect>
                <g id="SUV" transform="translate(16.000000, 16.000000)" fill="#FFFFFF" fill-rule="nonzero" stroke="#000000">
                    <path d="M54.9269079,138.866956 C42.1389335,140.317017 29.2300797,140.317017 16.4421053,138.866956 C11.4580921,138.29698 7.71751316,134.016976 7.71751316,127.260166 C5.83694737,105.186538 6.82347368,59.2464469 7.71751316,12.8296486 C7.70723684,8.29056455 12.2288158,2.94315041 18.3637763,1.94828267 C29.8528519,0.0673658099 41.5675428,0.0673658099 53.0566184,1.94828267 C59.1710263,2.9120608 63.7131579,8.29056455 63.7131579,12.8296486 C64.7407895,59.2464469 65.7684211,105.207264 63.7131579,127.291255 C63.7131579,134.048066 59.9109211,138.328069 54.9269079,138.866956 Z" id="Shape"></path>
                    <path d="M9.39255263,128.990821 L9.39255263,49.0075997 C9.09784499,38.0836046 9.39286895,27.1515299 10.2763158,16.2598697 C10.2763158,12.6016581 14.0682763,7.90712594 19.525,7.01589025 C24.9573443,6.08732972 30.457279,5.61934896 35.9671053,5.61685748 C41.3221662,5.62273474 46.6673567,6.08031091 51.9467763,6.98480063 C57.3623947,7.87603632 61.1338026,12.5602053 61.1338026,16.2184169 C62.1614342,24.8509672 62.2950263,38.7687525 61.9764605,49.0075997 L61.9764605,116.482432 L61.9764605,128.990821 C61.9764605,136.794315 9.39255263,136.794315 9.39255263,128.990821 Z" id="Shape"></path>
                    <path d="M12.4651711,47.6707462 C11.9069334,47.6765642 11.4110249,47.3123758 11.2451823,46.774803 C11.0793397,46.2372303 11.2828456,45.6536064 11.7458289,45.3390249 C24.0774079,36.8204698 46.6853026,36.7375642 59.3251711,45.1628504 C59.7499625,45.5948224 59.8128426,46.2693141 59.4753308,46.7735594 C59.1378191,47.2778046 58.4939996,47.4712408 57.9378684,47.2354915 C46.2434211,39.5149033 24.5295658,39.5978089 13.1742368,47.463482 C12.9649878,47.605211 12.717143,47.6776575 12.4651711,47.6707462 Z" id="Shape"></path>
                    <path d="M9.35144737,49.0075997 L9.35144737,127.529609 C26.4576545,133.19324 44.9113586,133.19324 62.0175658,127.529609 L62.0175658,49.0075997 C50.6005789,37.5044414 21.1383816,37.1106396 9.35144737,49.0075997 Z" id="Shape"></path>
                    <path d="M17.7780263,70.4697987 C17.4228945,70.4725913 17.1051201,70.2478522 16.98675,69.9101856 L9.30006579,48.5930715 C9.22073658,48.3801586 9.22935437,48.1440618 9.32399098,47.9376066 C9.4186276,47.7311515 9.59138347,47.5715714 9.80360526,47.4945717 C10.2403134,47.3407671 10.7189962,47.5660412 10.8826184,48.0023687 L18.5693026,69.3091196 C18.6483235,69.5206036 18.6394445,69.7552863 18.5446738,69.9600833 C18.4499032,70.1648803 18.2772484,70.322488 18.0657632,70.3972562 C17.9759942,70.4416218 17.8779371,70.4663434 17.7780263,70.4697987 Z" id="Shape"></path>
                    <path d="M53.5807105,70.4697987 C53.4858062,70.4896299 53.387878,70.4896299 53.2929737,70.4697987 C52.8562419,70.3092363 52.6309327,69.8223487 52.7894342,69.3816621 L60.4863947,48.0852744 C60.5802183,47.7881751 60.8278494,47.5667529 61.1315708,47.5083828 C61.4352922,47.4500127 61.7463202,47.5640701 61.9419205,47.805547 C62.1375209,48.0470239 62.1862762,48.3771343 62.0689474,48.6656139 L54.3719868,69.8894591 C54.2607034,70.2353143 53.9412689,70.4695947 53.5807105,70.4697987 Z" id="Shape"></path>
                    <polyline id="Shape" points="62.0072895 127.529609 51.4740658 109.570174 53.2724211 103.041354"></polyline>
                    <polyline id="Shape" points="9.13564474 127.529609 19.6688684 109.570174 17.8705132 103.041354"></polyline>
                    <path d="M35.6588158,117.332215 C30.5204508,117.325103 25.3952587,116.807904 20.3573816,115.788097 C17.3764053,115.195048 15.2254795,112.561745 15.2192237,109.497631 L15.2192237,66.7183182 C15.2178079,65.0706639 16.2603307,63.6063007 17.8088553,63.080833 C23.5672344,61.1222987 29.6023125,60.1178636 35.6793684,60.106593 C41.7523388,60.1367943 47.7803726,61.1587107 53.5293289,63.132649 C55.0778535,63.6581167 56.1203763,65.12248 56.1189605,66.7701342 L56.1189605,109.539084 C56.1207811,112.606124 53.9661735,115.243934 50.9808026,115.82955 C45.9300712,116.857357 40.7907966,117.37806 35.6382632,117.384031 L35.6588158,117.332215 Z" id="Shape"></path>
                    <path d="M8.54989474,53.0388867 L0.513803397,53.8886696 L0.513815789,53.4534149 C0.508849485,51.4673206 1.99717967,49.8006334 3.95638158,49.5983024 L6.09385526,49.3703119 C6.72157743,49.3058013 7.34701708,49.5124875 7.81513827,49.9391366 C8.28325945,50.3657857 8.55023811,50.972456 8.54989474,51.6087643 L8.54989474,53.0388867 Z" id="Shape"></path>
                    <path d="M62.9321579,53.0388867 L70.9682521,53.8886696 L70.9682368,53.4534149 C70.973741,51.4708972 69.4910758,49.8055828 67.5359474,49.5983024 L65.3984737,49.3703119 C64.7697979,49.3059975 64.143426,49.5124263 63.6737368,49.9387209 C63.2040475,50.3650155 62.9347286,50.9715243 62.9321579,51.6087643 L62.9321579,53.0388867 Z" id="Shape"></path>
                    <path d="M12.0952237,132.079056 L7.93331579,129.964962" id="Shape"></path>
                </g>
            </g>
        </g>
    </g>
</svg>