<?xml version="1.0" encoding="UTF-8"?>
<svg width="82px" height="170px" viewBox="0 0 82 170" version="1.1" xmlns="http://www.w3.org/2000/svg" xmlns:xlink="http://www.w3.org/1999/xlink">
    <!-- Generator: sketchtool 50.2 (55047) - http://www.bohemiancoding.com/sketch -->
    <title>F83E8781-5B2E-4F91-91BB-62F16E0E6AE3</title>
    <desc>Created with sketchtool.</desc>
    <defs></defs>
    <g id="Page-1" stroke="none" stroke-width="1" fill="none" fill-rule="evenodd">
        <g id="Truck" stroke="#212121">
            <g id="Shape">
                <path d="M62.6655172,168.124138 C48.072643,169.777219 33.3397708,169.777219 18.7468966,168.124138 C13.0606897,167.491034 8.79310345,162.637241 8.79310345,154.993103 C6.64758621,130.02069 7.77310345,67.062069 8.79310345,14.5496552 C8.79310345,9.37931034 13.9517241,3.32965517 20.9510345,2.20413793 C34.058797,0.0762125226 47.4239616,0.0762125226 60.5317241,2.20413793 C67.5075862,3.29448276 72.6896552,9.37931034 72.6896552,14.5144828 C73.862069,67.0268966 75.0344828,130.02069 72.6896552,154.993103 C72.6896552,162.637241 68.3517241,167.491034 62.6655172,168.124138 Z" fill="#FFFFFF" fill-rule="nonzero"></path>
                <path d="M40.7062069,164.56 C33.7642684,164.572578 26.8274818,164.181111 19.9310345,163.387586 C14.9131034,162.824828 11.7241379,158.416552 11.7241379,152.155862 L10.7158621,84.9531034 L10.7158621,52.8758621 C10.380122,41.3724709 10.7167876,29.8592892 11.7241379,18.3951724 C11.7241379,14.2565517 16.0503448,8.94551724 22.2758621,7.93724138 C28.4735651,6.88673905 34.7483814,6.35730142 41.0344828,6.35448276 C47.1440141,6.36113183 53.2422843,6.87879851 59.2655172,7.90206897 C65.4441379,8.91034483 69.7468966,14.2096552 69.7468966,18.3482759 C70.8549171,29.8220463 71.1761279,41.3582133 70.7082759,52.8758621 L70.7082759,84.9531034 L69.7,152.108966 C69.7,158.369655 66.4524138,162.777931 61.4931034,163.34069 C54.5936162,164.149549 47.6529447,164.556672 40.7062069,164.56 Z" fill="#FFFFFF" fill-rule="nonzero"></path>
                <path d="M10.6689655,44.2234483 L10.6689655,84.7068966 C30.1861708,91.1085545 51.2379671,91.1085545 70.7551724,84.7068966 L70.7551724,44.2234483 C57.7296552,31.2096552 24.1165517,30.7641379 10.6689655,44.2234483 Z" fill="#FFFFFF" fill-rule="nonzero"></path>
                <path d="M20.2827586,59.4531034 C19.9406228,59.4483605 19.6254698,59.2663708 19.4503448,58.9724138 L10.6806897,43.9068966 C10.4119746,43.4471671 10.5668223,42.8566461 11.0265517,42.5879311 C11.4862812,42.319216 12.0768021,42.4740637 12.3455172,42.9337931 L21.1034483,58.0110345 C21.2341292,58.2310565 21.270482,58.4945074 21.2042702,58.741698 C21.1380584,58.9888886 20.9748867,59.1988954 20.7517241,59.3241379 C20.6086431,59.4056586 20.4474042,59.4499993 20.2827586,59.4531034 Z" fill="#FFFFFF" fill-rule="nonzero"></path>
                <path d="M61.1296552,59.4531034 C60.9612346,59.4504646 60.7960889,59.4061572 60.6489655,59.3241379 C60.1893039,59.0586084 60.0318485,58.4707751 60.2972414,58.0110345 L69.0786207,42.9455172 C69.3441503,42.4858556 69.9319835,42.3284003 70.3917241,42.5937931 C70.845935,42.863478 71.0020431,43.4462816 70.7434483,43.9068966 L61.962069,58.9724138 C61.7886251,59.2680691 61.4724217,59.4506655 61.1296552,59.4531034 Z" fill="#FFFFFF" fill-rule="nonzero"></path>
                <polygon fill="#FFFFFF" fill-rule="nonzero" points="70.7434483 84.7068966 56.8034483 77.8951724 60.777931 75.48 70.7434483 75.8903448"></polygon>
                <polygon fill="#FFFFFF" fill-rule="nonzero" points="10.4227586 84.7068966 24.3627586 77.8951724 20.3882759 75.48 10.4227586 75.8903448"></polygon>
                <path d="M40.6827586,84.4137931 C32.8150663,84.3892024 24.9840243,83.3408596 17.3868966,81.2951724 L17.3868966,57.1668966 C17.3642461,55.1742008 18.6284072,53.393959 20.5172414,52.7586207 C27.0228206,50.5612564 33.8396219,49.4251229 40.7062069,49.3937931 C47.5727919,49.4251229 54.3895932,50.5612564 60.8951724,52.7586207 C62.7675202,53.388554 64.0278551,55.1445262 64.0255172,57.12 L64.0255172,81.26 C56.4138454,83.3169002 48.5673661,84.3770222 40.6827586,84.4137931 Z" fill="#FFFFFF" fill-rule="nonzero"></path>
                <path d="M9.75448276,48.7841379 L0.586206897,49.7455172 L0.586206897,49.2413793 C0.58656337,46.9989491 2.28303013,45.1201754 4.5137931,44.8917241 L6.95241379,44.6337931 C7.66857525,44.5608107 8.3821326,44.7946397 8.91620702,45.2773179 C9.45028144,45.759996 9.75487451,46.4463364 9.75448276,47.1662069 L9.75448276,48.7841379 Z" fill="#FFFFFF" fill-rule="nonzero"></path>
                <path d="M71.7986207,48.7841379 L80.9668966,49.7455172 L80.9668966,49.2413793 C80.9671635,47.0029928 79.2771521,45.1257645 77.0510345,44.8917241 L74.6124138,44.6337931 C73.8951644,44.5610327 73.1805435,44.7945704 72.64468,45.2768475 C72.1088166,45.7591246 71.8015536,46.4452823 71.7986207,47.1662069 L71.7986207,48.7841379 Z" fill="#FFFFFF" fill-rule="nonzero"></path>
                <path d="M23.8703448,126.96069 L23.8703448,141.252414 C23.8510098,144.184822 21.4683343,146.551788 18.5358621,146.551724 L14.7841379,146.551724 L14.362069,112.211724 L18.5358621,112.211724 C21.4786207,112.246897 23.8703448,112.246897 23.8703448,126.96069 Z" fill="#FFFFFF" fill-rule="nonzero"></path>
                <path d="M57.7648276,126.96069 L57.7648276,141.252414 C57.7777375,144.182931 60.1570406,146.551753 63.0875862,146.551724 L66.8275862,146.551724 L67.2496552,112.211724 L63.0875862,112.211724 C60.1448276,112.246897 57.7648276,112.246897 57.7648276,126.96069 Z" fill="#FFFFFF" fill-rule="nonzero"></path>
                <polyline stroke-linejoin="round" points="73.017931 150.151034 76.4296552 148.134483 76.4296552 112.246897 73.9910345 110.910345"></polyline>
                <polyline stroke-linejoin="round" points="8.47655172 150.151034 5.05310345 148.134483 5.05310345 112.246897 7.49172414 110.910345"></polyline>
            </g>
        </g>
    </g>
</svg>