<?xml version="1.0" encoding="UTF-8"?>
<svg width="107px" height="170px" viewBox="0 0 107 170" version="1.1" xmlns="http://www.w3.org/2000/svg" xmlns:xlink="http://www.w3.org/1999/xlink">
    <!-- Generator: Sketch 52.5 (67469) - http://www.bohemiancoding.com/sketch -->
    <title>MiniVan Yellow</title>
    <desc>Created with Sketch.</desc>
    <g id="Severity-Scale-Display" stroke="none" stroke-width="1" fill="none" fill-rule="evenodd">
        <g id="Assets" transform="translate(-1148.000000, -570.000000)">
            <g id="MiniVan-Yellow" transform="translate(1148.000000, 570.000000)">
                <rect id="Rectangle-3" fill="#FFFBE7" x="-7.10542736e-15" y="0" width="107" height="170"></rect>
                <g id="MiniVan" transform="translate(16.000000, 16.000000)" fill="#FFFFFF" fill-rule="nonzero" stroke="#000000">
                    <path d="M58.45,136.29 C44.487687,137.742747 30.412313,137.742747 16.45,136.29 C11.45,135.72 7.68,131.45 7.68,124.72 C5.79,102.72 6.79,59.03 7.68,12.8 C7.68,8.24 12.22,2.91 18.4,1.92 C31.0408509,0.0450232672 43.8891491,0.0450232672 56.53,1.92 C62.68,2.92 67.19,8.25 67.19,12.79 C68.19,59.04 69.3,102.79 67.19,124.79 C67.23,131.45 63.46,135.72 58.45,136.29 Z" id="Shape"></path>
                    <path d="M9.41,125.32 L9.41,47.71 C9.11008331,36.8292898 9.39382397,25.9403245 10.26,15.09 C10.26,11.44 14.08,6.76 19.55,5.88 C25.3609676,4.95394186 31.2357079,4.48583506 37.12,4.48 C43.2588173,4.48206162 49.3890067,4.93998744 55.46,5.85 C60.9,6.73 64.69,11.4 64.69,15.05 C65.69,23.64 65.86,37.51 65.53,47.71 L65.53,112.87 L65.53,125.32 C65.53,133.11 9.41,133.11 9.41,125.32 Z" id="Shape"></path>
                    <path d="M9.37,26.87 L9.37,125 C27.6780869,130.644921 47.2619131,130.644921 65.57,125 L65.57,26.87 C54.11,15.41 21.22,15 9.37,26.87 Z" id="Shape"></path>
                    <path d="M65.57,125 L55,110.36 L56.8,51.2 L65.58,51.59 C66.11,51.59 66.11,125 65.57,125 Z" id="Shape"></path>
                    <path d="M17.17,39.65 C16.8714509,39.6508258 16.5928444,39.5002277 16.43,39.25 L8.43,26.67 C8.25465893,26.4072541 8.23550827,26.0701116 8.37996804,25.7892 C8.52442782,25.5082885 8.80979905,25.3277475 9.12551331,25.3175286 C9.44122757,25.3073096 9.73767667,25.4690183 9.9,25.74 L17.9,38.31 C18.151913,38.7200013 18.0323137,39.2559832 17.63,39.52 C17.4911881,39.6040055 17.3322483,39.6489232 17.17,39.65 Z" id="Shape"></path>
                    <path d="M57.52,39.65 C57.3573125,39.6521303 57.1975075,39.6069681 57.06,39.52 C56.8623241,39.3965647 56.7224352,39.1989814 56.6716806,38.9715258 C56.6209261,38.7440703 56.6635497,38.505761 56.79,38.31 L64.79,25.74 C65.0672899,25.3776941 65.5754927,25.2873964 65.9606192,25.5320038 C66.3457458,25.7766111 66.4800577,26.2749926 66.27,26.68 L58.27,39.25 C58.1052381,39.5032369 57.8220883,39.6542502 57.52,39.65 Z" id="Shape"></path>
                    <polygon id="Shape" points="9.16 124.96 19.75 110.36 17.94 51.2 9.16 51.59"></polygon>
                    <path d="M36.91,119.54 C29.6185512,119.543588 22.3564879,118.616087 15.3,116.78 L15.3,37.85 C15.3016479,37.0365039 15.7958667,36.30506 16.55,36 C22.16,33.62 30.47,32.41 36.93,32.41 C43.61,32.41 54.17,33.7 58.61,36.26 C59.2361002,36.6333375 59.6168502,37.3110724 59.61,38.04 L59.61,116.8 C53.42,118.64 43.7,119.57 36.87,119.57 L36.91,119.54 Z" id="Shape"></path>
                    <path d="M8.57,30.89 L0.5,31.73 L0.5,31.29 C0.502096639,29.3008774 2.01911276,27.6408283 4,27.46 L6.15,27.23 C6.78107718,27.1648574 7.41017893,27.3703783 7.88108319,27.7955267 C8.35198745,28.2206751 8.62052097,28.8255698 8.62,29.46 L8.57,30.89 Z" id="Shape"></path>
                    <path d="M66.5,30.89 L74.5700001,31.73 L74.57,31.29 C74.5704279,29.3182421 73.0810871,27.6648579 71.12,27.46 L69,27.23 C68.3689228,27.1648574 67.7398211,27.3703783 67.2689168,27.7955267 C66.7980126,28.2206751 66.529479,28.8255698 66.53,29.46 L66.5,30.89 Z" id="Shape"></path>
                </g>
            </g>
        </g>
    </g>
</svg>