<?xml version="1.0" encoding="UTF-8"?>
<svg width="102px" height="155px" viewBox="0 0 102 155" version="1.1" xmlns="http://www.w3.org/2000/svg" xmlns:xlink="http://www.w3.org/1999/xlink">
    <!-- Generator: Sketch 52.5 (67469) - http://www.bohemiancoding.com/sketch -->
    <title>Car White</title>
    <desc>Created with Sketch.</desc>
    <g id="Severity-Scale-Display" stroke="none" stroke-width="1" fill="none" fill-rule="evenodd">
        <g id="Assets" transform="translate(-1036.000000, -828.000000)" fill="#FFFFFF">
            <g id="Car-White" transform="translate(1036.000000, 828.000000)">
                <rect id="Rectangle-3" x="0" y="0" width="102" height="155"></rect>
                <g id="Car-Copy" transform="translate(16.000000, 16.000000)" fill-rule="nonzero" stroke="#000000">
                    <path d="M53.45,121.31 C41.0025746,122.70999 28.4374254,122.70999 15.99,121.31 C11.14,120.76 7.5,116.62 7.5,110.11 C5.67,88.8 6.63,57.2 7.5,12.41 C7.5,8 11.89,2.84 17.87,1.88 C29.0501504,0.0650047987 40.4498496,0.0650047987 51.63,1.88 C57.58,2.81 62,8 62,12.38 C63,57.17 64,88.8 62,110.11 C62,116.62 58.3,120.76 53.45,121.31 Z" id="Shape"></path>
                    <path d="M34.72,118.26 C28.7989348,118.270728 22.8822639,117.93683 17,117.26 C12.72,116.78 10,113.02 10,107.69 L9.18,99.69 L9.18,47.29 C8.87991249,36.7495906 9.15365056,26.2006601 10,15.69 C10,12.16 13.69,7.63 19,6.77 C24.2862761,5.87398331 29.6383253,5.42240416 35,5.42 C40.2110708,5.42567127 45.4125366,5.86721049 50.55,6.74 C55.81,7.6 59.49,12.12 59.49,15.65 C60.49,23.98 60.62,37.41 60.31,47.29 L60.31,99.68 L59.45,107.68 C59.45,113.01 56.68,116.77 52.45,117.25 C46.564559,117.929884 40.6445765,118.267119 34.72,118.26 Z" id="Shape"></path>
                    <path d="M9.1,47.29 L9.1,99.68 C25.74546,105.15004 43.70454,105.15004 60.35,99.68 L60.35,47.29 C49.24,36.19 20.57,35.81 9.1,47.29 Z" id="Shape"></path>
                    <path d="M17.3,69 C16.9544172,69.0026948 16.6451873,68.7858322 16.53,68.46 L9.05,47.89 C8.91648985,47.4707747 9.13762284,47.020896 9.55110502,46.8705388 C9.9645872,46.7201817 10.4230419,46.9229376 10.59,47.33 L18.07,67.88 C18.1468961,68.084072 18.1382558,68.3105296 18.0460334,68.5081489 C17.9538111,68.7057683 17.7857987,68.8578523 17.58,68.93 C17.4926448,68.9728107 17.3972243,68.9966658 17.3,69 Z" id="Shape"></path>
                    <path d="M52.14,69 C52.0476475,69.0191362 51.9523525,69.0191362 51.86,69 C51.6542013,68.9278523 51.4861889,68.7757683 51.3939666,68.5781489 C51.3017442,68.3805296 51.2931039,68.154072 51.37,67.95 L58.86,47.4 C58.9513007,47.1133134 59.1922734,46.8996515 59.4878282,46.8433271 C59.7833829,46.7870027 60.0860478,46.8970627 60.2763887,47.1300764 C60.4667296,47.3630901 60.5141741,47.6816309 60.4,47.96 L52.91,68.44 C52.8017088,68.7737338 52.4908635,68.9998031 52.14,69 Z" id="Shape"></path>
                    <polyline id="Shape" points="60.34 99.68 50.09 82.35 53.48 78.51"></polyline>
                    <polyline id="Shape" points="8.89 89.51 8.89 99.68 19.14 82.35"></polyline>
                    <path d="M34.7,92.31 C27.9893213,92.2890256 21.3099031,91.3948508 14.83,89.65 L14.83,61.77 C21.1733678,59.3065311 27.9151362,58.0286795 34.72,58 C41.5279815,58.0446225 48.2698553,59.3394419 54.61,61.82 L54.61,89.65 C48.1163592,91.3942857 41.4237964,92.2884202 34.7,92.31 Z" id="Shape"></path>
                    <path d="M8.32,52.18 L0.499987941,53 L0.5,52.58 C0.495167232,50.6635136 1.9434783,49.0552398 3.85,48.86 L5.93,48.64 C6.5408436,48.5777503 7.14946604,48.7771927 7.60500011,49.1888888 C8.06053417,49.6005848 8.32033414,50.1859928 8.32,50.8 L8.32,52.18 Z" id="Shape"></path>
                    <path d="M61.24,52.18 L69.0600149,53 L69.06,52.58 C69.0653561,50.6669648 67.6225577,49.0600157 65.72,48.86 L63.64,48.64 C63.0282284,48.5779396 62.4186988,48.7771336 61.9616388,49.1884876 C61.5045789,49.5998416 61.2425016,50.1850938 61.24,50.8 L61.24,52.18 Z" id="Shape"></path>
                    <polygon id="Shape" points="8.09 46.38 5.19 38.18 5.19 18.92 8.09 10.72"></polygon>
                    <polygon id="Shape" points="61.35 46.38 64.25 38.18 64.25 18.92 61.35 10.72"></polygon>
                </g>
            </g>
        </g>
    </g>
</svg>