<?xml version="1.0" encoding="UTF-8"?>
<svg width="99px" height="173px" viewBox="0 0 99 173" version="1.1" xmlns="http://www.w3.org/2000/svg" xmlns:xlink="http://www.w3.org/1999/xlink">
    <!-- Generator: Sketch 52.5 (67469) - http://www.bohemiancoding.com/sketch -->
    <title>rev_Truck-yellow</title>
    <desc>Created with Sketch.</desc>
    <g id="Severity-Scale-Display" stroke="none" stroke-width="1" fill="none" fill-rule="evenodd">
        <g id="Assets" transform="translate(-369.000000, -1145.000000)">
            <g id="rev_Truck-yellow" transform="translate(369.000000, 1145.000000)">
                <rect id="Rectangle-3" fill="#FFFBE7" x="0" y="0" width="99" height="173"></rect>
                <g id="Truck-Copy" transform="translate(16.000000, 16.000000)" stroke="#212121">
                    <path d="M51.8344402,139.444138 C39.7637911,140.815223 27.5773413,140.815223 15.5066922,139.444138 C10.8032865,138.919034 7.27330779,134.893241 7.27330779,128.553103 C5.49862069,107.84069 6.42960409,55.622069 7.27330779,12.0676552 C7.27330779,7.77931034 11.540315,2.76165517 17.329868,1.82813793 C28.1720914,0.0632115628 39.2272275,0.0632115628 50.0694508,1.82813793 C55.8396083,2.73248276 60.1260111,7.77931034 60.1260111,12.0384828 C61.0957854,55.5928966 62.0655598,107.84069 60.1260111,128.553103 C60.1260111,134.893241 56.5378459,138.919034 51.8344402,139.444138 Z" id="Shape" fill="#FFFFFF" fill-rule="nonzero"></path>
                    <path d="M33.6705662,136.488 C27.928469,136.498432 22.1906331,136.173745 16.4861643,135.515586 C12.33553,135.048828 9.69774372,131.392552 9.69774372,126.199862 L8.86373776,70.4611034 L8.86373776,43.8558621 C8.5860268,34.3148141 8.86450331,24.7656458 9.69774372,15.2571724 C9.69774372,11.8245517 13.2762112,7.41951724 18.4257131,6.58324138 C23.5522082,5.71194239 28.7424883,5.27282059 33.942103,5.27048276 C38.995666,5.27599758 44.0399142,5.70535641 49.0220945,6.55406897 C54.1328054,7.39034483 57.6918774,11.7856552 57.6918774,15.2182759 C58.6083882,24.7347561 58.8740811,34.3029887 58.4870924,43.8558621 L58.4870924,70.4611034 L57.6530864,126.160966 C57.6530864,131.353655 54.9668114,135.009931 50.8646658,135.47669 C45.1576825,136.147567 39.4166333,136.48524 33.6705662,136.488 Z" id="Shape" fill="#FFFFFF" fill-rule="nonzero"></path>
                    <path d="M8.82494679,36.6794483 L8.82494679,70.2568966 C24.9688079,75.566507 42.3820222,75.566507 58.5258834,70.2568966 L58.5258834,36.6794483 C47.7516901,25.8856552 19.9482588,25.5161379 8.82494679,36.6794483 Z" id="Shape" fill="#FFFFFF" fill-rule="nonzero"></path>
                    <path d="M16.7770966,49.3111034 C16.4940954,49.3071696 16.2334133,49.1562252 16.0885568,48.9124138 L8.83464453,36.4168966 C8.61237403,36.0355915 8.74045795,35.5458065 9.12072798,35.322931 C9.50099801,35.1000556 9.98945362,35.2284881 10.2117241,35.6097931 L17.4559387,48.1150345 C17.5640328,48.2975233 17.5941024,48.5160326 17.5393346,48.7210554 C17.4845669,48.9260782 17.3495976,49.1002603 17.1650064,49.2041379 C17.0466554,49.2717522 16.913285,49.3085289 16.7770966,49.3111034 Z" id="Shape" fill="#FFFFFF" fill-rule="nonzero"></path>
                    <path d="M50.5640358,49.3111034 C50.4247249,49.3089147 50.2881229,49.2721657 50.1664283,49.2041379 C49.7862143,48.9839046 49.6559735,48.4963487 49.875496,48.1150345 L57.139106,35.6195172 C57.3587416,35.2382685 57.844974,35.1076732 58.2252533,35.3277931 C58.6009586,35.5514729 58.7300851,36.0348571 58.5161856,36.4168966 L51.2525756,48.9124138 C51.1091097,49.1576338 50.8475587,49.3090814 50.5640358,49.3111034 Z" id="Shape" fill="#FFFFFF" fill-rule="nonzero"></path>
                    <polygon id="Shape" fill="#FFFFFF" fill-rule="nonzero" points="58.5161856 70.2568966 46.9855683 64.6071724 50.2731034 62.604 58.5161856 62.9443448"></polygon>
                    <polygon id="Shape" fill="#FFFFFF" fill-rule="nonzero" points="8.62129417 70.2568966 20.1519115 64.6071724 16.8643763 62.604 8.62129417 62.9443448"></polygon>
                    <path d="M33.6511707,70.0137931 C27.1433265,69.9933973 20.6657979,69.1238894 14.3817539,67.4271724 L14.3817539,47.4148966 C14.3630183,45.7621313 15.4086825,44.2855777 16.9710515,43.7586207 C22.3522097,41.9361009 27.9907984,40.9937784 33.6705662,40.9677931 C39.350334,40.9937784 44.9889227,41.9361009 50.3700809,43.7586207 C51.918813,44.2810948 52.9613122,45.7375187 52.9593785,47.376 L52.9593785,67.398 C46.6633042,69.1040172 40.1730065,69.9832949 33.6511707,70.0137931 Z" id="Shape" fill="#FFFFFF" fill-rule="nonzero"></path>
                    <path d="M8.06852278,40.4621379 L0.484887186,41.2595172 L0.484887186,40.8413793 C0.485182047,38.9814813 1.88843233,37.4232043 3.73363133,37.2337241 L5.75076203,37.0197931 C6.34314249,36.9592607 6.93336894,37.1532012 7.3751342,37.5535401 C7.81689946,37.953879 8.06884682,38.5231378 8.06852278,39.1202069 L8.06852278,40.4621379 Z" id="Shape" fill="#FFFFFF" fill-rule="nonzero"></path>
                    <path d="M59.3889825,40.4621379 L66.9726181,41.2595172 L66.9726181,40.8413793 C66.9728389,38.9848352 65.5749282,37.42784 63.7335717,37.2337241 L61.716441,37.0197931 C61.1231607,36.9594448 60.5320545,37.1531437 60.0888094,37.55315 C59.6455643,37.9531563 59.3914086,38.5222636 59.3889825,39.1202069 L59.3889825,40.4621379 Z" id="Shape" fill="#FFFFFF" fill-rule="nonzero"></path>
                    <path d="M19.7446062,105.30269 L19.7446062,117.156414 C19.7286131,119.588588 17.757758,121.551777 15.3321328,121.551724 L12.2288548,121.551724 L11.8797361,93.0697241 L15.3321328,93.0697241 C17.7662665,93.0988966 19.7446062,93.0988966 19.7446062,105.30269 Z" id="Shape" fill="#FFFFFF" fill-rule="nonzero"></path>
                    <path d="M47.7807833,105.30269 L47.7807833,117.156414 C47.7914619,119.587019 49.7595274,121.551748 52.183559,121.551724 L55.2771392,121.551724 L55.626258,93.0697241 L52.183559,93.0697241 C49.7494253,93.0988966 47.7807833,93.0988966 47.7807833,105.30269 Z" id="Shape" fill="#FFFFFF" fill-rule="nonzero"></path>
                    <polyline id="Shape" stroke-linejoin="round" points="60.3975479 124.537034 63.2195913 122.864483 63.2195913 93.0988966 61.2024606 91.9903448"></polyline>
                    <polyline id="Shape" stroke-linejoin="round" points="7.01146871 124.537034 4.17972754 122.864483 4.17972754 93.0988966 6.19685824 91.9903448"></polyline>
                </g>
            </g>
        </g>
    </g>
</svg>